<?xml version="1.0" encoding="UTF-8"?>
<svg id="Layer_1" xmlns="http://www.w3.org/2000/svg" version="1.1" viewBox="0 0 150 150">
  <!-- Generator: Adobe Illustrator 29.8.4, SVG Export Plug-In . SVG Version: 2.1.1 Build 6)  -->
  <defs>
    <style>
      .st0 {
        fill-rule: evenodd;
      }
    </style>
  </defs>
  <g id="YinYang">
    <path class="st0" d="M75,5.5C36.6,5.5,5.5,36.6,5.5,75s31.1,69.5,69.5,69.5,69.5-31.1,69.5-69.5S113.4,5.5,75,5.5ZM75,7.2C37.5,7.2,7.2,37.5,7.2,75s30.4,67.8,67.8,67.8c-18.7,0-33.9-18.7-33.9-33s15.2-34.8,33.9-34.8,34.8-18.7,34.8-34.8S93.7,7.2,75,7.2ZM75,121.1c6.2,0,11.3-5.1,11.3-11.3s-5.1-11.3-11.3-11.3-11.3,5.1-11.3,11.3,5.1,11.3,11.3,11.3ZM75,28.4c-6.5,0-11.8,5.3-11.8,11.8s5.3,11.8,11.8,11.8,11.8-5.3,11.8-11.8-5.3-11.8-11.8-11.8Z"/>
  </g>
</svg>