<?xml version="1.0" encoding="UTF-8"?>
<svg id="Layer_1" xmlns="http://www.w3.org/2000/svg" version="1.1" viewBox="0 0 100 100">
  <!-- Generator: Adobe Illustrator 29.8.4, SVG Export Plug-In . SVG Version: 2.1.1 Build 6)  -->
  <defs>
    <style>
      .st0 {
        fill: #fff;
      }

      .st0, .st1, .st2 {
        fill-rule: evenodd;
      }

      .st1 {
        fill: #1d1d1b;
      }
    </style>
  </defs>
  <g id="YinYang">
    <path class="st2" d="M49.8,5.5C24.6,5.5,4.1,26,4.1,51.2s20.5,45.8,45.8,45.8,45.8-20.5,45.8-45.8S75.1,5.5,49.8,5.5Z"/>
  </g>
  <path class="st0" d="M49.8,6.6C25.2,6.6,5.2,26.6,5.2,51.2s20,44.6,44.6,44.6c-12.3,0-22.3-12.3-22.3-21.7s10-22.9,22.3-22.9,22.9-12.3,22.9-22.9S62.2,6.6,49.8,6.6Z"/>
  <path class="st1" d="M49.8,20.6c-4.3,0-7.8,3.5-7.8,7.8s3.5,7.8,7.8,7.8,7.8-3.5,7.8-7.8-3.5-7.8-7.8-7.8Z"/>
  <path class="st0" d="M49.8,81.6c4.1,0,7.4-3.4,7.4-7.4s-3.4-7.4-7.4-7.4-7.4,3.4-7.4,7.4,3.4,7.4,7.4,7.4Z"/>
</svg>